<?xml version="1.0" encoding="UTF-8" standalone="no" ?>
<!DOCTYPE svg PUBLIC "-//W3C//DTD SVG 1.1//EN" "http://www.w3.org/Graphics/SVG/1.1/DTD/svg11.dtd">
<svg xmlns="http://www.w3.org/2000/svg" xmlns:xlink="http://www.w3.org/1999/xlink" version="1.1" width="470.40999999999997" height="343.36760000000004" xml:space="preserve">
<desc>Created with Fabric.js 1.6.0-rc.1</desc>
<defs></defs>
<g style="stroke: none; stroke-width: 1; stroke-dasharray: none; stroke-linecap: butt; stroke-linejoin: miter; stroke-miterlimit: 10; fill: none; fill-rule: nonzero; opacity: 1;" transform="translate(342.41999999999996 192.47999999999996) scale(0.23 0.23)" >
  <circle cx="256" cy="256" r="256" style="stroke: none; stroke-width: 1; stroke-dasharray: none; stroke-linecap: butt; stroke-linejoin: miter; stroke-miterlimit: 10; fill: #590F38; fill-rule: nonzero; opacity: 1;" transform="  matrix(1 0 0 1 0 0) "/>
  <path d="M 270.114 511.607 C 404.933 504.28 512 392.648 512 256 c 0 -5.548 -0.197 -11.049 -0.544 -16.509 L 353.211 81.246 L 99.961 297.368 l 145.421 145.421 l -31.27 12.816 L 270.114 511.607 z" style="stroke: none; stroke-width: 1; stroke-dasharray: none; stroke-linecap: butt; stroke-linejoin: miter; stroke-miterlimit: 10; fill: #3A0826; fill-rule: nonzero; opacity: 1;" transform=" matrix(1 0 0 1 0 0) " stroke-linecap="round" />
  <path d="M 253 39.5 c -93.756 0 -169.76 96.93 -169.76 216.5 c 0 0.335 0.001 0.67 0.002 1.005 c 0.149 41.882 43.434 69.365 81.762 52.48 c 27.98 -12.326 40.877 -6.751 52.847 5.22 c 13.321 13.321 9.318 44.16 -10.686 79.658 c -19.557 34.705 5.135 77.88 44.97 78.133 c 0.288 0.002 0.576 0.003 0.864 0.003 c 93.756 0 169.76 -96.93 169.76 -216.5 S 346.756 39.5 253 39.5 z M 275.435 339.01 c -18.586 0 -33.653 -15.067 -33.653 -33.653 s 15.067 -33.653 33.653 -33.653 s 33.653 15.067 33.653 33.653 S 294.021 339.01 275.435 339.01 z" style="stroke: none; stroke-width: 1; stroke-dasharray: none; stroke-linecap: butt; stroke-linejoin: miter; stroke-miterlimit: 10; fill: #FFFFFF; fill-rule: nonzero; opacity: 1;" transform=" matrix(1 0 0 1 0 0) " stroke-linecap="round" />
  <path d="M 422.76 256 c 0 -118.504 -74.658 -214.753 -167.26 -216.46 v 238.708 c 5.58 -4.11 12.473 -6.543 19.935 -6.543 c 18.586 0 33.653 15.067 33.653 33.653 s -15.067 33.653 -33.653 33.653 c -7.463 0 -14.355 -2.433 -19.935 -6.544 V 472.46 C 348.102 470.753 422.76 374.504 422.76 256 z" style="stroke: none; stroke-width: 1; stroke-dasharray: none; stroke-linecap: butt; stroke-linejoin: miter; stroke-miterlimit: 10; fill: #E0E0E0; fill-rule: nonzero; opacity: 1;" transform=" matrix(1 0 0 1 0 0) " stroke-linecap="round" />
  <circle cx="138.577" cy="241.417" r="21.687" style="stroke: none; stroke-width: 1; stroke-dasharray: none; stroke-linecap: butt; stroke-linejoin: miter; stroke-miterlimit: 10; fill: #FF81AE; fill-rule: nonzero; opacity: 1;" transform="  matrix(1 0 0 1 0 0) "/>
  <path d="M 138.58 219.73 c -0.027 0 -0.053 0.002 -0.08 0.002 v 43.371 c 0.027 0 0.053 0.002 0.08 0.002 c 11.978 0 21.687 -9.71 21.687 -21.688 C 160.268 229.439 150.558 219.73 138.58 219.73 z" style="stroke: none; stroke-width: 1; stroke-dasharray: none; stroke-linecap: butt; stroke-linejoin: miter; stroke-miterlimit: 10; fill: #FF3F84; fill-rule: nonzero; opacity: 1;" transform=" matrix(1 0 0 1 0 0) " stroke-linecap="round" />
  <circle cx="160.26700000000002" cy="162.887" r="21.687" style="stroke: none; stroke-width: 1; stroke-dasharray: none; stroke-linecap: butt; stroke-linejoin: miter; stroke-miterlimit: 10; fill: #35CCFF; fill-rule: nonzero; opacity: 1;" transform="  matrix(1 0 0 1 0 0) "/>
  <path d="M 160.268 141.206 c -0.09 0 -0.178 0.006 -0.268 0.007 v 43.361 c 0.09 0.001 0.178 0.007 0.268 0.007 c 11.978 0 21.688 -9.71 21.688 -21.687 C 181.955 150.916 172.245 141.206 160.268 141.206 z" style="stroke: none; stroke-width: 1; stroke-dasharray: none; stroke-linecap: butt; stroke-linejoin: miter; stroke-miterlimit: 10; fill: #00BAFF; fill-rule: nonzero; opacity: 1;" transform=" matrix(1 0 0 1 0 0) " stroke-linecap="round" />
  <circle cx="214.107" cy="104.557" r="21.687" style="stroke: none; stroke-width: 1; stroke-dasharray: none; stroke-linecap: butt; stroke-linejoin: miter; stroke-miterlimit: 10; fill: #FF3F84; fill-rule: nonzero; opacity: 1;" transform="  matrix(1 0 0 1 0 0) "/>
  <path d="M 214.112 82.875 c -0.205 0 -0.408 0.01 -0.612 0.015 v 43.344 c 0.204 0.006 0.407 0.015 0.612 0.015 c 11.978 0 21.688 -9.71 21.688 -21.687 C 235.8 92.584 226.09 82.875 214.112 82.875 z" style="stroke: none; stroke-width: 1; stroke-dasharray: none; stroke-linecap: butt; stroke-linejoin: miter; stroke-miterlimit: 10; fill: #983262; fill-rule: nonzero; opacity: 1;" transform=" matrix(1 0 0 1 0 0) " stroke-linecap="round" />
  <circle cx="297.117" cy="104.557" r="21.687" style="stroke: none; stroke-width: 1; stroke-dasharray: none; stroke-linecap: butt; stroke-linejoin: miter; stroke-miterlimit: 10; fill: #0074A3; fill-rule: nonzero; opacity: 1;" transform="  matrix(1 0 0 1 0 0) "/>
  <path d="M 297.123 82.875 c -0.209 0 -0.415 0.01 -0.623 0.016 v 43.343 c 0.208 0.006 0.414 0.016 0.623 0.016 c 11.978 0 21.688 -9.71 21.688 -21.687 S 309.1 82.875 297.123 82.875 z" style="stroke: none; stroke-width: 1; stroke-dasharray: none; stroke-linecap: butt; stroke-linejoin: miter; stroke-miterlimit: 10; fill: #005C83; fill-rule: nonzero; opacity: 1;" transform=" matrix(1 0 0 1 0 0) " stroke-linecap="round" />
  <circle cx="353.207" cy="179.347" r="21.687" style="stroke: none; stroke-width: 1; stroke-dasharray: none; stroke-linecap: butt; stroke-linejoin: miter; stroke-miterlimit: 10; fill: #60C344; fill-rule: nonzero; opacity: 1;" transform="  matrix(1 0 0 1 0 0) "/>
  <path d="M 353.211 157.659 c -0.238 0 -0.474 0.01 -0.711 0.018 v 43.339 c 0.237 0.008 0.472 0.018 0.711 0.018 c 11.978 0 21.687 -9.71 21.687 -21.688 C 374.898 167.369 365.188 157.659 353.211 157.659 z" style="stroke: none; stroke-width: 1; stroke-dasharray: none; stroke-linecap: butt; stroke-linejoin: miter; stroke-miterlimit: 10; fill: #47AB4B; fill-rule: nonzero; opacity: 1;" transform=" matrix(1 0 0 1 0 0) " stroke-linecap="round" />
  <circle cx="368.91700000000003" cy="268.707" r="21.687" style="stroke: none; stroke-width: 1; stroke-dasharray: none; stroke-linecap: butt; stroke-linejoin: miter; stroke-miterlimit: 10; fill: #FFDC00; fill-rule: nonzero; opacity: 1;" transform="  matrix(1 0 0 1 0 0) "/>
  <path d="M 368.915 247.026 c -0.139 0 -0.277 0.008 -0.415 0.01 v 43.354 c 0.139 0.003 0.276 0.01 0.415 0.01 c 11.978 0 21.688 -9.71 21.688 -21.687 S 380.893 247.026 368.915 247.026 z" style="stroke: none; stroke-width: 1; stroke-dasharray: none; stroke-linecap: butt; stroke-linejoin: miter; stroke-miterlimit: 10; fill: #FFC000; fill-rule: nonzero; opacity: 1;" transform=" matrix(1 0 0 1 0 0) " stroke-linecap="round" />
  <circle cx="343.487" cy="360.697" r="21.687" style="stroke: none; stroke-width: 1; stroke-dasharray: none; stroke-linecap: butt; stroke-linejoin: miter; stroke-miterlimit: 10; fill: #F1333F; fill-rule: nonzero; opacity: 1;" transform="  matrix(1 0 0 1 0 0) "/>
  <path d="M 365.176 360.698 c 0 -11.974 -9.704 -21.681 -21.676 -21.687 v 43.374 C 355.472 382.379 365.176 372.671 365.176 360.698 z" style="stroke: none; stroke-width: 1; stroke-dasharray: none; stroke-linecap: butt; stroke-linejoin: miter; stroke-miterlimit: 10; fill: #AE283F; fill-rule: nonzero; opacity: 1;" transform=" matrix(1 0 0 1 0 0) " stroke-linecap="round" />
</g>
  <g transform="translate(155.84 225.09) scale(1.8 1.8)">
   <text font-family="FFF Tusj" font-size="40" font-weight="normal" style="stroke: none; stroke-width: 1; stroke-dasharray: none; stroke-linecap: butt; stroke-linejoin: miter; stroke-miterlimit: 10; fill: #0080ff; fill-rule: nonzero; opacity: 1;" ><tspan x="-80.52" y="8.98" style="stroke: none; stroke-width: 0; stroke-dasharray: none; stroke-linecap: butt; stroke-linejoin: miter; stroke-miterlimit: 4; fill: #0080ff; fill-rule: ; opacity: 1;">P</tspan><tspan x="-53.84" y="8.98" style="stroke: none; stroke-width: 0; stroke-dasharray: none; stroke-linecap: butt; stroke-linejoin: miter; stroke-miterlimit: 4; fill: #0080ff; fill-rule: ; opacity: 1;">a</tspan><tspan x="-31.34" y="8.98" style="stroke: none; stroke-width: 0; stroke-dasharray: none; stroke-linecap: butt; stroke-linejoin: miter; stroke-miterlimit: 4; fill: #0080ff; fill-rule: ; opacity: 1;">i</tspan><tspan x="-18.84" y="8.98" style="stroke: none; stroke-width: 0; stroke-dasharray: none; stroke-linecap: butt; stroke-linejoin: miter; stroke-miterlimit: 4; fill: #0080ff; fill-rule: ; opacity: 1;">n</tspan><tspan x="7.82" y="8.98" style="stroke: none; stroke-width: 0; stroke-dasharray: none; stroke-linecap: butt; stroke-linejoin: miter; stroke-miterlimit: 4; fill: #0080ff; fill-rule: ; opacity: 1;">t</tspan><tspan x="23.72" y="8.98" style="stroke: none; stroke-width: 0; stroke-dasharray: none; stroke-linecap: butt; stroke-linejoin: miter; stroke-miterlimit: 4; fill: #0080ff; fill-rule: ; opacity: 1;"> </tspan><tspan x="33.88" y="8.98" style="stroke: none; stroke-width: 0; stroke-dasharray: none; stroke-linecap: butt; stroke-linejoin: miter; stroke-miterlimit: 4; fill: #0080ff; fill-rule: ; opacity: 1;">b</tspan><tspan x="58.04" y="8.98" style="stroke: none; stroke-width: 0; stroke-dasharray: none; stroke-linecap: butt; stroke-linejoin: miter; stroke-miterlimit: 4; fill: #0080ff; fill-rule: ; opacity: 1;">y</tspan></text>
 </g>
  <g transform="translate(175.62 287.08) scale(1.8 1.8)">
   <text font-family="FFF Tusj" font-size="40" font-weight="normal" style="stroke: none; stroke-width: 1; stroke-dasharray: none; stroke-linecap: butt; stroke-linejoin: miter; stroke-miterlimit: 10; fill: #0080ff; fill-rule: nonzero; opacity: 1;" ><tspan x="-91.51" y="8.98" style="stroke: none; stroke-width: 0; stroke-dasharray: none; stroke-linecap: butt; stroke-linejoin: miter; stroke-miterlimit: 4; fill: #0080ff; fill-rule: ; opacity: 1;">n</tspan><tspan x="-64.85" y="8.98" style="stroke: none; stroke-width: 0; stroke-dasharray: none; stroke-linecap: butt; stroke-linejoin: miter; stroke-miterlimit: 4; fill: #0080ff; fill-rule: ; opacity: 1;">u</tspan><tspan x="-35.52" y="8.98" style="stroke: none; stroke-width: 0; stroke-dasharray: none; stroke-linecap: butt; stroke-linejoin: miter; stroke-miterlimit: 4; fill: #0080ff; fill-rule: ; opacity: 1;">m</tspan><tspan x="4.48" y="8.98" style="stroke: none; stroke-width: 0; stroke-dasharray: none; stroke-linecap: butt; stroke-linejoin: miter; stroke-miterlimit: 4; fill: #0080ff; fill-rule: ; opacity: 1;">b</tspan><tspan x="28.64" y="8.98" style="stroke: none; stroke-width: 0; stroke-dasharray: none; stroke-linecap: butt; stroke-linejoin: miter; stroke-miterlimit: 4; fill: #0080ff; fill-rule: ; opacity: 1;">e</tspan><tspan x="51.51" y="8.98" style="stroke: none; stroke-width: 0; stroke-dasharray: none; stroke-linecap: butt; stroke-linejoin: miter; stroke-miterlimit: 4; fill: #0080ff; fill-rule: ; opacity: 1;">r</tspan><tspan x="71.51" y="8.98" style="stroke: none; stroke-width: 0; stroke-dasharray: none; stroke-linecap: butt; stroke-linejoin: miter; stroke-miterlimit: 4; fill: #0080ff; fill-rule: ; opacity: 1;">s</tspan></text>
 </g>
  <g transform="translate(305.91 58.09) scale(1.8 1.8)">
   <text font-family="FFF Tusj" font-size="40" font-weight="normal" style="stroke: none; stroke-width: 1; stroke-dasharray: none; stroke-linecap: butt; stroke-linejoin: miter; stroke-miterlimit: 10; fill: #0080ff; fill-rule: nonzero; opacity: 1;" ><tspan x="0" y="8.98" fill="#0080ff"></tspan></text>
 </g>
</svg>